<?xml version="1.0" encoding="UTF-8" standalone="no"?>
<!DOCTYPE svg PUBLIC "-//W3C//DTD SVG 1.1//EN"
 "http://www.w3.org/Graphics/SVG/1.1/DTD/svg11.dtd">
<!-- Generated by graphviz version 14.1.3 (0)
 -->
<!-- Pages: 1 -->
<svg width="3209pt" height="1633pt"
 viewBox="0.00 0.00 3209.00 1633.00" xmlns="http://www.w3.org/2000/svg" xmlns:xlink="http://www.w3.org/1999/xlink">
<g id="graph0" class="graph" transform="scale(1 1) rotate(0) translate(15.05 1618.05)">
<g id="clust1" class="cluster">
<title>cluster_appsec</title>
<polygon fill="#194b9e" stroke="#1b3d88" points="443.33,-800 443.33,-1595 3171.06,-1595 3171.06,-800 443.33,-800"/>
<text xml:space="preserve" text-anchor="start" x="451.33" y="-1582.1" font-family="Arial" font-weight="bold" font-size="11.00" fill="#bfdbfe" fill-opacity="0.701961">APPSEC PILOT</text>
</g>
<!-- frontend -->
<g id="node1" class="node">
<title>frontend</title>
<polygon fill="#3b82f6" stroke="#2563eb" stroke-width="0" points="808.64,-1499 483.33,-1499 483.33,-1319 808.64,-1319 808.64,-1499"/>
<text xml:space="preserve" text-anchor="start" x="607.08" y="-1430.8" font-family="Arial" font-size="20.00" fill="#eff6ff">React UI</text>
<text xml:space="preserve" text-anchor="start" x="542.3" y="-1409.8" font-family="Arial" font-size="13.00" fill="#bfdbfe">Vite, TanStack Router, React Query</text>
<text xml:space="preserve" text-anchor="start" x="521.77" y="-1388.2" font-family="Arial" font-size="15.00" fill="#bfdbfe">Projects, target wizard, scan timeline,</text>
<text xml:space="preserve" text-anchor="start" x="503.38" y="-1370.2" font-family="Arial" font-size="15.00" fill="#bfdbfe">endpoint graph, findings, settings, audit log</text>
</g>
<!-- cli -->
<g id="node2" class="node">
<title>cli</title>
<polygon fill="#3b82f6" stroke="#2563eb" stroke-width="0" points="806,-1209 485.96,-1209 485.96,-1029 806,-1029 806,-1209"/>
<text xml:space="preserve" text-anchor="start" x="630.42" y="-1131.8" font-family="Arial" font-size="20.00" fill="#eff6ff">CLI</text>
<text xml:space="preserve" text-anchor="start" x="629.37" y="-1110.8" font-family="Arial" font-size="13.00" fill="#bfdbfe">Typer</text>
<text xml:space="preserve" text-anchor="start" x="524.67" y="-1089.2" font-family="Arial" font-size="15.00" fill="#bfdbfe">appsec scan/status/findings/report/ci</text>
</g>
<!-- api -->
<g id="node3" class="node">
<title>api</title>
<polygon fill="#3b82f6" stroke="#2563eb" stroke-width="0" points="1350.37,-1463 1030.33,-1463 1030.33,-1283 1350.37,-1283 1350.37,-1463"/>
<text xml:space="preserve" text-anchor="start" x="1132.54" y="-1394.8" font-family="Arial" font-size="20.00" fill="#eff6ff">Backend API</text>
<text xml:space="preserve" text-anchor="start" x="1097.14" y="-1373.8" font-family="Arial" font-size="13.00" fill="#bfdbfe">FastAPI, Pydantic, SQLAlchemy</text>
<text xml:space="preserve" text-anchor="start" x="1061.53" y="-1352.2" font-family="Arial" font-size="15.00" fill="#bfdbfe">Auth, projects, targets, scans, findings,</text>
<text xml:space="preserve" text-anchor="start" x="1102.8" y="-1334.2" font-family="Arial" font-size="15.00" fill="#bfdbfe">evidence, reports, settings</text>
</g>
<!-- worker -->
<g id="node4" class="node">
<title>worker</title>
<polygon fill="#3b82f6" stroke="#2563eb" stroke-width="0" points="1896.02,-1184 1575.98,-1184 1575.98,-1004 1896.02,-1004 1896.02,-1184"/>
<text xml:space="preserve" text-anchor="start" x="1703.78" y="-1115.8" font-family="Arial" font-size="20.00" fill="#eff6ff">Worker</text>
<text xml:space="preserve" text-anchor="start" x="1619.66" y="-1094.8" font-family="Arial" font-size="13.00" fill="#bfdbfe">Dramatiq&#45;compatible background runner</text>
<text xml:space="preserve" text-anchor="start" x="1619.28" y="-1073.2" font-family="Arial" font-size="15.00" fill="#bfdbfe">Executes scan lifecycle and artifact</text>
<text xml:space="preserve" text-anchor="start" x="1700.56" y="-1055.2" font-family="Arial" font-size="15.00" fill="#bfdbfe">generation</text>
</g>
<!-- agent -->
<g id="node5" class="node">
<title>agent</title>
<polygon fill="#3b82f6" stroke="#2563eb" stroke-width="0" points="2518.57,-1020 2198.53,-1020 2198.53,-840 2518.57,-840 2518.57,-1020"/>
<text xml:space="preserve" text-anchor="start" x="2292.41" y="-951.8" font-family="Arial" font-size="20.00" fill="#eff6ff">Agent Runtime</text>
<text xml:space="preserve" text-anchor="start" x="2283.05" y="-930.8" font-family="Arial" font-size="13.00" fill="#bfdbfe">Python async orchestrator</text>
<text xml:space="preserve" text-anchor="start" x="2224.72" y="-909.2" font-family="Arial" font-size="15.00" fill="#bfdbfe">Scope policy, endpoint mapping, prompt</text>
<text xml:space="preserve" text-anchor="start" x="2229.78" y="-891.2" font-family="Arial" font-size="15.00" fill="#bfdbfe">library, tool registry, verifier, risk scorer</text>
</g>
<!-- redis -->
<g id="node6" class="node">
<title>redis</title>
<polygon fill="#3b82f6" stroke="#2563eb" stroke-width="0" points="2531.62,-1310 2185.49,-1310 2185.49,-1130 2531.62,-1130 2531.62,-1310"/>
<text xml:space="preserve" text-anchor="start" x="2332.99" y="-1223" font-family="Arial" font-size="20.00" fill="#eff6ff">Redis</text>
<text xml:space="preserve" text-anchor="start" x="2205.54" y="-1200" font-family="Arial" font-size="15.00" fill="#bfdbfe">Queue/cache when compose stack is enabled</text>
</g>
<!-- db -->
<g id="node7" class="node">
<title>db</title>
<polygon fill="#3b82f6" stroke="#2563eb" stroke-width="0" points="3130.12,-1050 2810.08,-1050 2810.08,-870 3130.12,-870 3130.12,-1050"/>
<text xml:space="preserve" text-anchor="start" x="2876.72" y="-972" font-family="Arial" font-size="20.00" fill="#eff6ff">PostgreSQL / SQLite</text>
<text xml:space="preserve" text-anchor="start" x="2853.38" y="-949" font-family="Arial" font-size="15.00" fill="#bfdbfe">Projects, targets, scans, endpoints,</text>
<text xml:space="preserve" text-anchor="start" x="2899.64" y="-931" font-family="Arial" font-size="15.00" fill="#bfdbfe">findings, audit events</text>
</g>
<!-- artifacts -->
<g id="node8" class="node">
<title>artifacts</title>
<polygon fill="#3b82f6" stroke="#2563eb" stroke-width="0" points="3131.06,-1340 2809.15,-1340 2809.15,-1160 3131.06,-1160 3131.06,-1340"/>
<text xml:space="preserve" text-anchor="start" x="2901.18" y="-1271.8" font-family="Arial" font-size="20.00" fill="#eff6ff">Artifact Storage</text>
<text xml:space="preserve" text-anchor="start" x="2912.32" y="-1250.8" font-family="Arial" font-size="13.00" fill="#bfdbfe">Filesystem or MinIO</text>
<text xml:space="preserve" text-anchor="start" x="2829.2" y="-1229.2" font-family="Arial" font-size="15.00" fill="#bfdbfe">HTML/PDF reports and redacted evidence</text>
<text xml:space="preserve" text-anchor="start" x="2943.85" y="-1211.2" font-family="Arial" font-size="15.00" fill="#bfdbfe">artifacts</text>
</g>
<!-- user -->
<g id="node9" class="node">
<title>user</title>
<polygon fill="#3b82f6" stroke="#2563eb" stroke-width="0" points="323.9,-1499 3.86,-1499 3.86,-1319 323.9,-1319 323.9,-1499"/>
<text xml:space="preserve" text-anchor="start" x="84.95" y="-1421" font-family="Arial" font-size="20.00" fill="#eff6ff">Security Engineer</text>
<text xml:space="preserve" text-anchor="start" x="27.98" y="-1398" font-family="Arial" font-size="15.00" fill="#bfdbfe">Runs authorized scans, reviews findings,</text>
<text xml:space="preserve" text-anchor="start" x="113.86" y="-1380" font-family="Arial" font-size="15.00" fill="#bfdbfe">exports reports</text>
</g>
<!-- ci -->
<g id="node10" class="node">
<title>ci</title>
<polygon fill="#3b82f6" stroke="#2563eb" stroke-width="0" points="327.76,-1209 0,-1209 0,-1029 327.76,-1029 327.76,-1209"/>
<text xml:space="preserve" text-anchor="start" x="136.66" y="-1131" font-family="Arial" font-size="20.00" fill="#eff6ff">CI/CD</text>
<text xml:space="preserve" text-anchor="start" x="20.06" y="-1108" font-family="Arial" font-size="15.00" fill="#bfdbfe">GitHub Actions, GitLab CI, and local quality</text>
<text xml:space="preserve" text-anchor="start" x="145.53" y="-1090" font-family="Arial" font-size="15.00" fill="#bfdbfe">gates</text>
</g>
<!-- model -->
<g id="node11" class="node">
<title>model</title>
<polygon fill="#3b82f6" stroke="#2563eb" stroke-width="0" points="3130.12,-180 2810.08,-180 2810.08,0 3130.12,0 3130.12,-180"/>
<text xml:space="preserve" text-anchor="start" x="2876.17" y="-111.8" font-family="Arial" font-size="20.00" fill="#eff6ff">Local Model Runtime</text>
<text xml:space="preserve" text-anchor="start" x="2879.79" y="-90.8" font-family="Arial" font-size="13.00" fill="#bfdbfe">Ollama OpenAI&#45;compatible API</text>
<text xml:space="preserve" text-anchor="start" x="2856.72" y="-69.2" font-family="Arial" font-size="15.00" fill="#bfdbfe">Local Qwen&#45;family model used for</text>
<text xml:space="preserve" text-anchor="start" x="2842.11" y="-51.2" font-family="Arial" font-size="15.00" fill="#bfdbfe">planning/summarization when enabled</text>
</g>
<!-- targets -->
<g id="node12" class="node">
<title>targets</title>
<polygon fill="#3b82f6" stroke="#2563eb" stroke-width="0" points="3145.23,-760 2794.98,-760 2794.98,-580 3145.23,-580 3145.23,-760"/>
<text xml:space="preserve" text-anchor="start" x="2885.62" y="-682" font-family="Arial" font-size="20.00" fill="#eff6ff">Authorized Targets</text>
<text xml:space="preserve" text-anchor="start" x="2815.03" y="-659" font-family="Arial" font-size="15.00" fill="#bfdbfe">Local URL, repository, archive, OpenAPI spec,</text>
<text xml:space="preserve" text-anchor="start" x="2925.5" y="-641" font-family="Arial" font-size="15.00" fill="#bfdbfe">or Docker lab</text>
</g>
<!-- tools -->
<g id="node13" class="node">
<title>tools</title>
<polygon fill="#3b82f6" stroke="#2563eb" stroke-width="0" points="3145.63,-470 2794.57,-470 2794.57,-290 3145.63,-290 3145.63,-470"/>
<text xml:space="preserve" text-anchor="start" x="2906.75" y="-392" font-family="Arial" font-size="20.00" fill="#eff6ff">Security Tools</text>
<text xml:space="preserve" text-anchor="start" x="2814.63" y="-369" font-family="Arial" font-size="15.00" fill="#bfdbfe">Semgrep, secret scan, AST map, HTTP probe,</text>
<text xml:space="preserve" text-anchor="start" x="2837.94" y="-351" font-family="Arial" font-size="15.00" fill="#bfdbfe">ZAP baseline, bounded browser checks</text>
</g>
<!-- frontend&#45;&gt;api -->
<g id="edge4" class="edge">
<title>frontend&#45;&gt;api</title>
<path fill="none" stroke="#8d8d8d" stroke-width="2" stroke-dasharray="5,2" d="M808.61,-1398.27C875.42,-1393.84 952.9,-1388.69 1020.46,-1384.21"/>
<polygon fill="#8d8d8d" stroke="#8d8d8d" stroke-width="2" points="1020.45,-1386.84 1027.76,-1383.73 1020.11,-1381.6 1020.45,-1386.84"/>
<polygon fill="#18191b" fill-opacity="0.627451" stroke="none" points="868.64,-1394.22 868.64,-1417.02 970.33,-1417.02 970.33,-1394.22 868.64,-1394.22"/>
<text xml:space="preserve" text-anchor="start" x="871.64" y="-1400.02" font-family="Arial" font-size="14.00" fill="#c9c9c9">calls REST API</text>
</g>
<!-- cli&#45;&gt;api -->
<g id="edge5" class="edge">
<title>cli&#45;&gt;api</title>
<path fill="none" stroke="#8d8d8d" stroke-width="2" stroke-dasharray="5,2" d="M805.68,-1193.32C873.45,-1225.06 952.6,-1262.13 1021.36,-1294.33"/>
<polygon fill="#8d8d8d" stroke="#8d8d8d" stroke-width="2" points="1019.91,-1296.55 1027.81,-1297.35 1022.13,-1291.79 1019.91,-1296.55"/>
<polygon fill="#18191b" fill-opacity="0.627451" stroke="none" points="868.64,-1268.75 868.64,-1291.55 970.33,-1291.55 970.33,-1268.75 868.64,-1268.75"/>
<text xml:space="preserve" text-anchor="start" x="871.64" y="-1274.55" font-family="Arial" font-size="14.00" fill="#c9c9c9">calls REST API</text>
</g>
<!-- api&#45;&gt;worker -->
<g id="edge6" class="edge">
<title>api&#45;&gt;worker</title>
<path fill="none" stroke="#8d8d8d" stroke-width="2" stroke-dasharray="5,2" d="M1350.06,-1291.55C1418.14,-1256.61 1497.76,-1215.75 1566.85,-1180.29"/>
<polygon fill="#8d8d8d" stroke="#8d8d8d" stroke-width="2" points="1567.93,-1182.69 1573.4,-1176.93 1565.53,-1178.02 1567.93,-1182.69"/>
<polygon fill="#18191b" fill-opacity="0.627451" stroke="none" points="1410.37,-1258.49 1410.37,-1281.29 1515.98,-1281.29 1515.98,-1258.49 1410.37,-1258.49"/>
<text xml:space="preserve" text-anchor="start" x="1413.37" y="-1264.29" font-family="Arial" font-size="14.00" fill="#c9c9c9">publishes scans</text>
</g>
<!-- api&#45;&gt;db -->
<g id="edge7" class="edge">
<title>api&#45;&gt;db</title>
<path fill="none" stroke="#8d8d8d" stroke-width="2" stroke-dasharray="5,2" d="M1350.27,-1386.69C1657.75,-1410.8 2322.24,-1450.64 2531.62,-1365 2683.74,-1302.78 2674.49,-1217.21 2794.57,-1105 2811.82,-1088.88 2830.56,-1072.36 2849.15,-1056.51"/>
<polygon fill="#8d8d8d" stroke="#8d8d8d" stroke-width="2" points="2850.78,-1058.57 2854.8,-1051.72 2847.38,-1054.57 2850.78,-1058.57"/>
<polygon fill="#18191b" fill-opacity="0.627451" stroke="none" points="1987.56,-1417.27 1987.56,-1440.07 2093.95,-1440.07 2093.95,-1417.27 1987.56,-1417.27"/>
<text xml:space="preserve" text-anchor="start" x="1990.56" y="-1423.07" font-family="Arial" font-size="14.00" fill="#c9c9c9">stores metadata</text>
</g>
<!-- api&#45;&gt;artifacts -->
<g id="edge8" class="edge">
<title>api&#45;&gt;artifacts</title>
<path fill="none" stroke="#8d8d8d" stroke-width="2" stroke-dasharray="5,2" d="M1350.21,-1420.42C1636.98,-1497.53 2255.81,-1624.75 2734.57,-1449 2791.32,-1428.17 2843.74,-1386.85 2884.56,-1347.23"/>
<polygon fill="#8d8d8d" stroke="#8d8d8d" stroke-width="2" points="2886.39,-1349.12 2889.89,-1341.98 2882.71,-1345.38 2886.39,-1349.12"/>
<polygon fill="#18191b" fill-opacity="0.627451" stroke="none" points="1994.96,-1536.94 1994.96,-1559.74 2086.55,-1559.74 2086.55,-1536.94 1994.96,-1536.94"/>
<text xml:space="preserve" text-anchor="start" x="1997.96" y="-1542.74" font-family="Arial" font-size="14.00" fill="#c9c9c9">stores reports</text>
</g>
<!-- worker&#45;&gt;agent -->
<g id="edge9" class="edge">
<title>worker&#45;&gt;agent</title>
<path fill="none" stroke="#8d8d8d" stroke-width="2" stroke-dasharray="5,2" d="M1896,-1051.98C1985.56,-1028.31 2097.39,-998.76 2188.54,-974.67"/>
<polygon fill="#8d8d8d" stroke="#8d8d8d" stroke-width="2" points="2189.19,-977.21 2195.77,-972.76 2187.85,-972.13 2189.19,-977.21"/>
<polygon fill="#18191b" fill-opacity="0.627451" stroke="none" points="2024.14,-1031.51 2024.14,-1054.31 2057.37,-1054.31 2057.37,-1031.51 2024.14,-1031.51"/>
<text xml:space="preserve" text-anchor="start" x="2027.14" y="-1037.31" font-family="Arial" font-size="14.00" fill="#c9c9c9">runs</text>
</g>
<!-- worker&#45;&gt;redis -->
<g id="edge10" class="edge">
<title>worker&#45;&gt;redis</title>
<path fill="none" stroke="#8d8d8d" stroke-width="2" stroke-dasharray="5,2" d="M1896,-1126.28C1981.32,-1143.61 2086.85,-1165.03 2175.46,-1183.03"/>
<polygon fill="#8d8d8d" stroke="#8d8d8d" stroke-width="2" points="2174.78,-1185.57 2182.66,-1184.49 2175.83,-1180.42 2174.78,-1185.57"/>
<polygon fill="#18191b" fill-opacity="0.627451" stroke="none" points="1956.02,-1171.99 1956.02,-1194.79 2125.49,-1194.79 2125.49,-1171.99 1956.02,-1171.99"/>
<text xml:space="preserve" text-anchor="start" x="1959.02" y="-1177.79" font-family="Arial" font-size="14.00" fill="#c9c9c9">uses queue when enabled</text>
</g>
<!-- agent&#45;&gt;db -->
<g id="edge11" class="edge">
<title>agent&#45;&gt;db</title>
<path fill="none" stroke="#8d8d8d" stroke-width="2" stroke-dasharray="5,2" d="M2518.51,-937.82C2604.95,-942.08 2711.87,-947.34 2799.85,-951.67"/>
<polygon fill="#8d8d8d" stroke="#8d8d8d" stroke-width="2" points="2799.57,-954.28 2807.19,-952.03 2799.83,-949.04 2799.57,-954.28"/>
<polygon fill="#18191b" fill-opacity="0.627451" stroke="none" points="2614.96,-947.69 2614.96,-970.49 2711.23,-970.49 2711.23,-947.69 2614.96,-947.69"/>
<text xml:space="preserve" text-anchor="start" x="2617.96" y="-953.49" font-family="Arial" font-size="14.00" fill="#c9c9c9">stores findings</text>
</g>
<!-- agent&#45;&gt;artifacts -->
<g id="edge12" class="edge">
<title>agent&#45;&gt;artifacts</title>
<path fill="none" stroke="#8d8d8d" stroke-width="2" stroke-dasharray="5,2" d="M2518.51,-1013.45C2604.96,-1058.83 2711.89,-1114.97 2799.89,-1161.16"/>
<polygon fill="#8d8d8d" stroke="#8d8d8d" stroke-width="2" points="2798.61,-1163.46 2806.47,-1164.62 2801.05,-1158.81 2798.61,-1163.46"/>
<polygon fill="#18191b" fill-opacity="0.627451" stroke="none" points="2611.07,-1118.66 2611.07,-1141.46 2715.12,-1141.46 2715.12,-1118.66 2611.07,-1118.66"/>
<text xml:space="preserve" text-anchor="start" x="2614.07" y="-1124.46" font-family="Arial" font-size="14.00" fill="#c9c9c9">stores evidence</text>
</g>
<!-- agent&#45;&gt;model -->
<g id="edge13" class="edge">
<title>agent&#45;&gt;model</title>
<path fill="none" stroke="#8d8d8d" stroke-width="2" stroke-dasharray="5,2" d="M2402.33,-840.16C2471.62,-700.53 2618.55,-427.5 2794.57,-235 2809.81,-218.34 2826.97,-201.87 2844.43,-186.34"/>
<polygon fill="#8d8d8d" stroke="#8d8d8d" stroke-width="2" points="2845.76,-188.67 2849.65,-181.75 2842.29,-184.73 2845.76,-188.67"/>
<polygon fill="#18191b" fill-opacity="0.627451" stroke="none" points="2591.62,-503.72 2591.62,-526.52 2734.57,-526.52 2734.57,-503.72 2591.62,-503.72"/>
<text xml:space="preserve" text-anchor="start" x="2594.62" y="-509.52" font-family="Arial" font-size="14.00" fill="#c9c9c9">calls chat completions</text>
</g>
<!-- agent&#45;&gt;targets -->
<g id="edge14" class="edge">
<title>agent&#45;&gt;targets</title>
<path fill="none" stroke="#8d8d8d" stroke-width="2" stroke-dasharray="5,2" d="M2518.51,-862.2C2600.37,-827.28 2700.58,-784.54 2785.7,-748.23"/>
<polygon fill="#8d8d8d" stroke="#8d8d8d" stroke-width="2" points="2786.55,-750.72 2792.42,-745.36 2784.49,-745.89 2786.55,-750.72"/>
<polygon fill="#18191b" fill-opacity="0.627451" stroke="none" points="2604.45,-830.93 2604.45,-853.73 2721.74,-853.73 2721.74,-830.93 2604.45,-830.93"/>
<text xml:space="preserve" text-anchor="start" x="2607.45" y="-836.73" font-family="Arial" font-size="14.00" fill="#c9c9c9">validates in scope</text>
</g>
<!-- agent&#45;&gt;tools -->
<g id="edge15" class="edge">
<title>agent&#45;&gt;tools</title>
<path fill="none" stroke="#8d8d8d" stroke-width="2" stroke-dasharray="5,2" d="M2452.76,-840.35C2539.91,-757.23 2674.29,-630.81 2794.57,-525 2812.64,-509.11 2832.02,-492.54 2851.06,-476.53"/>
<polygon fill="#8d8d8d" stroke="#8d8d8d" stroke-width="2" points="2852.53,-478.73 2856.59,-471.9 2849.16,-474.7 2852.53,-478.73"/>
<polygon fill="#18191b" fill-opacity="0.627451" stroke="none" points="2616.91,-700.32 2616.91,-723.12 2709.29,-723.12 2709.29,-700.32 2616.91,-700.32"/>
<text xml:space="preserve" text-anchor="start" x="2619.91" y="-706.12" font-family="Arial" font-size="14.00" fill="#c9c9c9">calls adapters</text>
</g>
<!-- user&#45;&gt;frontend -->
<g id="edge1" class="edge">
<title>user&#45;&gt;frontend</title>
<path fill="none" stroke="#8d8d8d" stroke-width="2" stroke-dasharray="5,2" d="M323.75,-1409C371.67,-1409 424.49,-1409 473.21,-1409"/>
<polygon fill="#8d8d8d" stroke="#8d8d8d" stroke-width="2" points="473.01,-1411.63 480.51,-1409 473.01,-1406.38 473.01,-1411.63"/>
<polygon fill="#18191b" fill-opacity="0.627451" stroke="none" points="387.76,-1409 387.76,-1431.8 423.33,-1431.8 423.33,-1409 387.76,-1409"/>
<text xml:space="preserve" text-anchor="start" x="390.76" y="-1414.8" font-family="Arial" font-size="14.00" fill="#c9c9c9">uses</text>
</g>
<!-- user&#45;&gt;cli -->
<g id="edge2" class="edge">
<title>user&#45;&gt;cli</title>
<path fill="none" stroke="#8d8d8d" stroke-width="2" stroke-dasharray="5,2" d="M313.83,-1319.03C368.84,-1285.8 431.35,-1248.04 487.13,-1214.35"/>
<polygon fill="#8d8d8d" stroke="#8d8d8d" stroke-width="2" points="488.36,-1216.67 493.43,-1210.54 485.65,-1212.18 488.36,-1216.67"/>
<polygon fill="#18191b" fill-opacity="0.627451" stroke="none" points="388.92,-1272.7 388.92,-1295.5 422.16,-1295.5 422.16,-1272.7 388.92,-1272.7"/>
<text xml:space="preserve" text-anchor="start" x="391.92" y="-1278.5" font-family="Arial" font-size="14.00" fill="#c9c9c9">runs</text>
</g>
<!-- ci&#45;&gt;cli -->
<g id="edge3" class="edge">
<title>ci&#45;&gt;cli</title>
<path fill="none" stroke="#8d8d8d" stroke-width="2" stroke-dasharray="5,2" d="M327.52,-1107.06C359.29,-1105.82 392.34,-1105.31 423.33,-1106.2 440.32,-1106.69 458.03,-1107.39 475.72,-1108.22"/>
<polygon fill="#8d8d8d" stroke="#8d8d8d" stroke-width="2" points="475.48,-1110.83 483.09,-1108.57 475.73,-1105.59 475.48,-1110.83"/>
<polygon fill="#18191b" fill-opacity="0.627451" stroke="none" points="388.54,-1106.2 388.54,-1129 422.55,-1129 422.55,-1106.2 388.54,-1106.2"/>
<text xml:space="preserve" text-anchor="start" x="391.54" y="-1112" font-family="Arial" font-size="14.00" fill="#c9c9c9">calls</text>
</g>
</g>
</svg>
